<?xml version="1.0" encoding="utf-8"?>
<!-- Generator: Adobe Illustrator 16.0.0, SVG Export Plug-In . SVG Version: 6.00 Build 0)  -->
<!DOCTYPE svg PUBLIC "-//W3C//DTD SVG 1.1//EN" "http://www.w3.org/Graphics/SVG/1.1/DTD/svg11.dtd">
<svg version="1.1" id="Layer_1" xmlns="http://www.w3.org/2000/svg" xmlns:xlink="http://www.w3.org/1999/xlink" x="0px" y="0px"
	 width="512px" height="512px" viewBox="0 0 512 512" enable-background="new 0 0 512 512" xml:space="preserve">
<path fill="#010101" d="M509.898,223.401C491.929,83.396,363.394-15.856,223.39,2.082C83.385,20.082-15.868,148.587,2.102,288.591
	C20.071,428.596,148.575,527.88,288.579,509.91C428.583,491.941,527.868,363.405,509.898,223.401z M340.706,60.865
	c8.438-0.969,17-0.469,25.688,1.031c48.126,27.438,85.565,72.283,102.816,127.223c-5,14.156-12.594,28.032-22.47,41.501
	c-27.907-10.031-55.001-18.344-80.627-24.657c-11.563-29.22-29.563-59.314-53.626-89.564
	C320.955,97.991,330.424,79.365,340.706,60.865z M298.705,124.961c23.813,29.72,41.438,59.096,52.595,87.44
	c-18.094,34.688-34.47,64.064-48.814,87.689c-21,3.188-55.846,4.126-104.097,2.813c-19.188-25.72-36.22-54.564-50.626-85.94
	c15.782-36.438,33.157-67.002,51.72-90.909C233.578,120.805,267.016,120.523,298.705,124.961z M133.855,68.99
	c9.375-2.906,18.25-4.844,26.657-5.781c9.406,21.47,17.813,39.72,25.095,54.471c-18.907,24.656-36.595,55.751-52.596,92.659
	c-28.751,7.25-52.845,14.031-73.377,20.625c-8.031-11.969-13.938-24.376-18.375-37.095C56.197,142.523,89.26,98.21,133.855,68.99z
	 M49.259,340.655c-7.25-17.626-12.563-36.376-15.094-56.158c-2.781-21.595-2.219-42.782,1.063-63.283
	c3.656,7.188,7.656,14.25,12.407,21.157c-5.25,40.032-4.438,72.783,2.063,97.909C49.541,340.405,49.384,340.53,49.259,340.655z
	 M56.259,356.155c0.938-0.875,1.938-1.75,2.875-2.625c24.751,18.876,50.502,33.032,76.69,41.97
	c7.969,25.001,24.188,49.096,48.095,71.909C128.824,448.564,82.698,408.688,56.259,356.155z M200.607,461.222
	c-25.344-22.688-41.907-46.564-49.595-71.034c14.188-22.969,30.032-46.845,47.22-71.096c46.126,1.219,80.909,0.438,103.16-2.406
	c0.719-0.094,1.344-0.219,2.031-0.281c15.875,26.001,32.313,49.939,49.001,71.252c-9.281,21.501-25.5,46.846-48.595,75.565
	C261.703,472.159,227.015,471.534,200.607,461.222z M318.674,470.409c22.907-28.845,39.313-54.627,48.783-76.815
	c30.751-6.938,56.939-19.344,78.19-36.813c2.438,1.5,4.75,3.281,7.094,5C424.896,413.376,377.27,453.346,318.674,470.409z
	 M459.897,347.155c-1.75-1.219-3.406-2.531-5.188-3.688c9.75-30.095,11.094-64.064,3.625-101.253
	c6.75-8.938,12.438-18.095,17.219-27.407c0.781,4.219,1.719,8.406,2.281,12.719C483.273,269.84,476.21,310.842,459.897,347.155z"/>
</svg>
