<?xml version="1.0" encoding="utf-8"?>
<!-- Generator: Adobe Illustrator 16.0.0, SVG Export Plug-In . SVG Version: 6.00 Build 0)  -->
<!DOCTYPE svg PUBLIC "-//W3C//DTD SVG 1.1//EN" "http://www.w3.org/Graphics/SVG/1.1/DTD/svg11.dtd">
<svg version="1.1" id="Layer_1" xmlns="http://www.w3.org/2000/svg" xmlns:xlink="http://www.w3.org/1999/xlink" x="0px" y="0px"
	 width="24px" height="24px" viewBox="0 0 24 24" enable-background="new 0 0 24 24" xml:space="preserve">
<g>
	<polygon points="8.333,9 7.667,9 7.667,9.666 7,9.666 7,10.334 7.667,10.334 7.667,11 8.333,11 8.333,10.334 9,10.334 9,9.666 
		8.333,9.666 	"/>
	<g>
		<path d="M12,0C5.373,0,0,5.373,0,12s5.373,12,12,12s12-5.373,12-12S18.627,0,12,0z M16.775,17.5C16.154,17.5,15.383,16,15,14H9
			c-0.383,2-1.154,3.5-1.775,3.5c-0.883,0-1.6-2.683-1.6-5.375s0.717-5.063,1.6-5.063C7.71,7.063,9.375,8,9.375,8h5.25
			c0,0,1.665-1,2.15-1c0.883,0,1.6,2.558,1.6,5.25S17.658,17.5,16.775,17.5z"/>
		<rect x="12.75" y="11.25" width="1.5" height="0.75"/>
		<rect x="9.75" y="11.25" width="1.5" height="0.75"/>
		<rect x="15" y="10.5" width="0.75" height="0.75"/>
		<rect x="16.5" y="10.5" width="0.75" height="0.75"/>
		<rect x="16.5" y="9" width="0.75" height="0.75"/>
		<rect x="15" y="9" width="0.75" height="0.75"/>
	</g>
</g>
</svg>
