<?xml version="1.0" encoding="utf-8"?>
<!-- Generator: Adobe Illustrator 16.0.0, SVG Export Plug-In . SVG Version: 6.00 Build 0)  -->
<!DOCTYPE svg PUBLIC "-//W3C//DTD SVG 1.1//EN" "http://www.w3.org/Graphics/SVG/1.1/DTD/svg11.dtd">
<svg version="1.1" id="Layer_1" xmlns="http://www.w3.org/2000/svg" xmlns:xlink="http://www.w3.org/1999/xlink" x="0px" y="0px"
	 width="24px" height="24px" viewBox="0 0 24 24" enable-background="new 0 0 24 24" xml:space="preserve">
<path fill-rule="evenodd" clip-rule="evenodd" d="M17.37,20.15l-5.87-2.072v-1.683l5.833,2.06c0.187,0.065,0.381,0.021,0.521-0.118
	l3.824-3.824l0.98,0.349L17.37,20.15L17.37,20.15z M10.5,14.307v1.725c-0.995,0.771-2.639,1.275-4.5,1.275S2.495,16.802,1.5,16.031
	v0.468v0c0,1.105,2.016,2,4.501,2c2.485,0,4.5-0.896,4.5-2v0h0.001v-2.775C9.505,14.496,7.861,15,6,15S2.495,14.496,1.5,13.725
	v0.582c0,1.105,2.016,2,4.501,2C8.485,16.307,10.5,15.412,10.5,14.307L10.5,14.307z M10.5,18.749c0,1.105-2.015,2-4.5,2
	c-2.485,0-4.501-0.895-4.501-2v-0.524C2.495,18.996,4.14,19.5,6,19.5s3.504-0.504,4.5-1.275V21H10.5v0c0,1.104-2.015,2-4.5,2
	C3.515,23,1.5,22.104,1.5,21v0v-0.526C2.495,21.245,4.14,21.749,6,21.749s3.504-0.504,4.5-1.275V18.749L10.5,18.749z M0.731,11.045
	L0.147,11.63c-0.125,0.125-0.173,0.292-0.134,0.464c0.039,0.172,0.153,0.302,0.32,0.361l0.167,0.059v1.506l-0.354,0.354
	c-0.125,0.125-0.173,0.292-0.134,0.464s0.153,0.302,0.32,0.361l0.167,0.059v1.535l-0.354,0.354
	c-0.125,0.125-0.173,0.292-0.134,0.464s0.153,0.302,0.32,0.361l0.167,0.059V21c0,2.383,3.726,3,5.5,3c1.54,0,4.556-0.466,5.32-2.152
	l6.013,2.122c0.187,0.066,0.381,0.022,0.521-0.117l6-6c0.117-0.117,0.164-0.279,0.14-0.431c0.038-0.232-0.092-0.469-0.321-0.551
	l-1.187-0.422l1.369-1.368c0.108-0.109,0.156-0.255,0.144-0.398c0.022-0.223-0.105-0.443-0.325-0.521L22.46,13.73l1.393-1.393
	c0.104-0.104,0.152-0.244,0.145-0.381c0.015-0.217-0.111-0.429-0.326-0.505l-1.236-0.439l1.417-1.417
	c0.1-0.099,0.147-0.23,0.146-0.361c0.01-0.212-0.117-0.417-0.327-0.492l-1.259-0.448l1.416-1.416
	c0.062-0.053,0.111-0.123,0.142-0.205C23.99,6.617,24,6.558,24,6.5V6.49l-0.001-0.003l-0.001-0.021V6.463l-0.001-0.01V6.451
	l-0.001-0.01V6.439l-0.002-0.01V6.428l-0.002-0.01L23.99,6.406V6.404c-0.018-0.095-0.064-0.185-0.137-0.258
	c-0.066-0.066-0.146-0.109-0.23-0.131L6.778,0.029C6.705,0.003,6.628-0.005,6.554,0.003C6.41-0.013,6.258,0.035,6.147,0.146l-6,6
	C0.022,6.271-0.025,6.438,0.014,6.61s0.153,0.302,0.32,0.36l1.279,0.452L0.147,8.888C0.022,9.013-0.025,9.18,0.014,9.352
	s0.153,0.302,0.32,0.36l1.224,0.432C1.206,10.394,0.917,10.691,0.731,11.045L0.731,11.045z M2.804,9.525l-1.39-0.491l1.243-1.243
	L6.085,9L6,9C5.169,9,3.909,9.135,2.804,9.525L2.804,9.525z M7.647,9.14V8.66l4.245-4.439l0.938-0.98l2.943,1.045l-5.134,5.368
	C10.547,9.75,10.501,9.866,10.501,10v0.188C9.736,9.624,8.647,9.303,7.647,9.14L7.647,9.14z M11.5,11.685L11.5,11.685l0.001,0.91
	l5.869,2.071l5.24-5.241l-0.98-0.348l-3.775,3.775c-0.14,0.139-0.334,0.184-0.521,0.118L11.5,10.911V11.685L11.5,11.685z
	 M11.501,13.654L11.5,15.336l5.87,2.071l5.265-5.264l-0.98-0.349l-3.8,3.8c-0.14,0.139-0.334,0.183-0.521,0.118L11.501,13.654
	L11.501,13.654z M11.5,19.138v0.257v1.456l5.87,2.072l5.335-5.335l-1.003-0.356l-3.848,3.849c-0.14,0.139-0.334,0.184-0.521,0.118
	L11.5,19.138L11.5,19.138z M6.739,8.171L1.415,6.292l5.244-5.245l5.139,1.827L6.787,8.115C6.769,8.133,6.753,8.152,6.739,8.171
	L6.739,8.171z M16.804,4.653l5.781,2.054l-5.216,5.216l-5.621-1.984l3.996-4.177L16.804,4.653L16.804,4.653z M6,10
	c2.485,0,4.5,0.896,4.5,2c0,1.105-2.015,2-4.5,2C3.515,14,1.5,13.105,1.5,12l0,0C1.5,10.895,3.515,10,6,10z"/>
</svg>
