<?xml version="1.0" encoding="utf-8"?>
<!-- Generator: Adobe Illustrator 16.0.0, SVG Export Plug-In . SVG Version: 6.00 Build 0)  -->
<!DOCTYPE svg PUBLIC "-//W3C//DTD SVG 1.1//EN" "http://www.w3.org/Graphics/SVG/1.1/DTD/svg11.dtd">
<svg version="1.1" id="Layer_1" xmlns="http://www.w3.org/2000/svg" xmlns:xlink="http://www.w3.org/1999/xlink" x="0px" y="0px"
	 width="24px" height="24px" viewBox="0 0 24 24" enable-background="new 0 0 24 24" xml:space="preserve">
<g>
	<path d="M17.824,12c0-2.613,0.913-5.104,2.583-7.082c1.618,1.913,2.594,4.385,2.594,7.082s-0.976,5.169-2.594,7.085
		C18.737,17.104,17.824,14.613,17.824,12z"/>
	<path d="M3.592,4.918C5.265,6.896,6.178,9.387,6.178,12s-0.915,5.104-2.586,7.085C1.977,17.169,1.001,14.697,1.001,12
		S1.977,6.831,3.592,4.918z"/>
	<path d="M4.486,20.027C6.415,17.796,7.472,14.97,7.472,12S6.415,6.204,4.486,3.973C6.455,2.13,9.097,1,12.001,1
		c2.901,0,5.543,1.13,7.512,2.973C17.584,6.204,16.53,9.03,16.53,12s1.054,5.796,2.982,8.027C17.547,21.87,14.902,23,12.001,23
		C9.097,23,6.455,21.87,4.486,20.027z"/>
</g>
</svg>
