<?xml version="1.0" encoding="utf-8"?>
<!-- Generator: Adobe Illustrator 16.0.0, SVG Export Plug-In . SVG Version: 6.00 Build 0)  -->
<!DOCTYPE svg PUBLIC "-//W3C//DTD SVG 1.1//EN" "http://www.w3.org/Graphics/SVG/1.1/DTD/svg11.dtd">
<svg version="1.1" id="Layer_1" xmlns="http://www.w3.org/2000/svg" xmlns:xlink="http://www.w3.org/1999/xlink" x="0px" y="0px"
	 width="24px" height="24px" viewBox="0 0 24 24" enable-background="new 0 0 24 24" xml:space="preserve">
<path d="M22.388,4.267H1.612C1.054,4.267,0.6,4.721,0.6,5.278v13.443c0,0.558,0.454,1.012,1.013,1.012h20.775
	c0.559,0,1.013-0.454,1.013-1.012V5.278C23.4,4.721,22.946,4.267,22.388,4.267z M14.693,13.266h4.889c0.221,0,0.4,0.18,0.4,0.4
	s-0.18,0.4-0.4,0.4h-4.889c-0.221,0-0.4-0.18-0.4-0.4S14.473,13.266,14.693,13.266z M14.293,11.223c0-0.221,0.18-0.4,0.4-0.4h4.889
	c0.221,0,0.4,0.18,0.4,0.4s-0.18,0.4-0.4,0.4h-4.889C14.473,11.623,14.293,11.443,14.293,11.223z M11.496,16.919H3.705
	c-0.502,0-0.91-0.387-0.91-0.861c0-0.046,0.03-0.388,0.172-0.889c0.119-0.43,0.675-0.844,2.992-1.467l0.184-0.05
	c0.063-0.018,0.205-0.236,0.242-0.769c-0.135-0.106-0.26-0.248-0.383-0.435l-0.104-0.156c-0.129-0.19-0.246-0.361-0.35-0.594
	c-0.126-0.05-0.228-0.146-0.285-0.239c-0.219-0.375-0.382-1.024-0.271-1.312c0.02-0.053,0.051-0.1,0.09-0.14
	c0.034-0.033,0.089-0.064,0.149-0.088C5.246,8.95,5.623,8.368,5.988,8.029c0-0.008,0.001-0.017,0.001-0.025
	c0.007-0.126,0.072-0.241,0.178-0.312c0.141-0.094,0.311-0.137,0.449-0.156c0.002-0.009,0.003-0.018,0.006-0.025
	c0.017-0.076,0.054-0.163,0.109-0.247c0.062-0.095,0.16-0.159,0.272-0.178C7.117,7.07,7.229,7.1,7.317,7.17
	c0.055,0.044,0.148,0.086,0.244,0.109c0.442,0.115,0.745,0.228,0.923,0.302c0.923,0.336,1.477,1.212,1.488,2.357
	c0.05,0.021,0.094,0.047,0.123,0.076c0.041,0.041,0.073,0.091,0.093,0.146c0.105,0.292-0.058,0.937-0.27,1.297
	c-0.063,0.104-0.162,0.19-0.269,0.239c-0.106,0.237-0.229,0.416-0.349,0.591l-0.112,0.166c-0.115,0.174-0.229,0.308-0.344,0.41
	c0.019,0.52,0.151,0.764,0.236,0.796c0.254,0.095,0.563,0.183,0.894,0.276c1.218,0.345,2.092,0.636,2.254,1.235
	c0.146,0.524,0.177,0.68,0.177,0.875C12.406,16.527,11.998,16.919,11.496,16.919z M20.805,16.511h-6.111c-0.221,0-0.4-0.18-0.4-0.4
	s0.18-0.4,0.4-0.4h6.111c0.221,0,0.4,0.18,0.4,0.4S21.025,16.511,20.805,16.511z M20.805,9.179h-6.111c-0.221,0-0.4-0.18-0.4-0.4
	s0.18-0.4,0.4-0.4h6.111c0.221,0,0.4,0.18,0.4,0.4S21.025,9.179,20.805,9.179z"/>
</svg>
