<?xml version="1.0" encoding="utf-8"?>
<!-- Generator: Adobe Illustrator 16.0.0, SVG Export Plug-In . SVG Version: 6.00 Build 0)  -->
<!DOCTYPE svg PUBLIC "-//W3C//DTD SVG 1.1//EN" "http://www.w3.org/Graphics/SVG/1.1/DTD/svg11.dtd">
<svg version="1.1" id="Layer_1" xmlns="http://www.w3.org/2000/svg" xmlns:xlink="http://www.w3.org/1999/xlink" x="0px" y="0px"
	 width="128px" height="128px" viewBox="0 0 128 128" enable-background="new 0 0 128 128" xml:space="preserve">
<g>
	<circle fill="#2568B7" cx="64" cy="64" r="64"/>
	<g>
		<g opacity="0.25">
			<path d="M108.428,98.418c-1.38-4.27-5.867-8.858-12.976-13.277c-7.635-4.739-15.708-7.672-18.765-8.159
				c-2.778-0.44-2.967-6.052-2.975-7.176l-0.003-0.381l0.306-0.303c0.63-0.654,6.198-6.604,7.443-14.221l0.132-0.779l1.05-0.011
				c1.234-0.238,2.237-2.06,2.686-3.761c0.719-2.796,0.214-5.515-1.26-6.76l-0.341-0.285l0.021-0.456
				c0.014-0.281,0.063-0.701,0.124-1.281c0.424-3.893,1.405-13.001-3.804-18.808C77.033,19.39,72.301,17.675,66,17.675
				c-6.298,0-11.029,1.708-14.062,5.081c-5.202,5.785-4.233,14.886-3.813,18.807c0.061,0.555,0.106,0.982,0.117,1.299l0.021,0.445
				l-0.346,0.292c-1.466,1.249-1.964,3.963-1.245,6.753c0.441,1.708,1.444,3.533,2.968,3.796h0.771l0.121,0.761
				c1.264,7.718,6.835,13.588,7.482,14.242l0.271,0.274v0.388c-0.015,1.117-0.202,6.729-2.985,7.169
				c-3.178,0.509-11.46,3.63-18.752,8.159c-7.105,4.411-11.594,9.005-12.978,13.277c-0.144,0.441-0.067,0.929,0.206,1.307
				c0.275,0.377,0.714,0.601,1.18,0.601h82.087c0.463,0,0.903-0.224,1.174-0.601C108.496,99.347,108.574,98.859,108.428,98.418z"/>
		</g>
		<g>
			<path fill="#FFFFFF" d="M106.428,96.418c-1.38-4.27-5.867-8.858-12.976-13.277c-7.635-4.739-15.708-7.672-18.765-8.159
				c-2.778-0.44-2.967-6.052-2.975-7.176l-0.003-0.381l0.306-0.303c0.63-0.654,6.198-6.604,7.443-14.221l0.132-0.779l1.05-0.011
				c1.234-0.238,2.237-2.06,2.686-3.761c0.719-2.796,0.214-5.515-1.26-6.76l-0.341-0.285l0.021-0.456
				c0.014-0.281,0.063-0.701,0.124-1.281c0.424-3.893,1.405-13.001-3.804-18.808C75.033,17.39,70.301,15.675,64,15.675
				c-6.298,0-11.029,1.708-14.062,5.081c-5.202,5.785-4.233,14.886-3.813,18.807c0.061,0.555,0.106,0.982,0.117,1.299l0.021,0.445
				l-0.346,0.292c-1.466,1.249-1.964,3.963-1.245,6.753c0.441,1.708,1.444,3.533,2.968,3.796h0.771l0.121,0.761
				c1.264,7.718,6.835,13.588,7.482,14.242l0.271,0.274v0.388c-0.015,1.117-0.202,6.729-2.985,7.169
				c-3.178,0.509-11.46,3.63-18.752,8.159c-7.105,4.411-11.594,9.005-12.978,13.277c-0.144,0.441-0.067,0.929,0.206,1.307
				c0.275,0.377,0.714,0.601,1.18,0.601h82.087c0.463,0,0.903-0.224,1.174-0.601C106.496,97.347,106.574,96.859,106.428,96.418z"/>
		</g>
	</g>
</g>
</svg>
