<?xml version="1.0" encoding="utf-8"?>
<!-- Generator: Adobe Illustrator 19.0.1, SVG Export Plug-In . SVG Version: 6.00 Build 0)  -->
<svg version="1.1" id="Layer_1" xmlns="http://www.w3.org/2000/svg" xmlns:xlink="http://www.w3.org/1999/xlink" x="0px" y="0px"
	 viewBox="0 0 512 512" style="enable-background:new 0 0 512 512;" xml:space="preserve">
<g>
	<path d="M512,270.6H270.6v38.5c23.7,1.6,46.9,7.1,68.7,16.4c25.5,10.8,48.4,26.2,68,45.8c16.4,16.4,29.8,35,40,55.4
		C484.8,384.7,508.6,330.4,512,270.6L512,270.6z M512,270.6"/>
	<g>
		<path d="M425.7,63.9C384,26.9,330,3.4,270.6,0v174.7c43.9-3.3,84.7-22.1,116.2-53.5C403.5,104.5,416.6,85,425.7,63.9L425.7,63.9z
			 M425.7,63.9"/>
		<path d="M241.4,241.5V204c-23.7-1.6-46.8-7-68.7-16.3c-25.5-10.8-48.4-26.2-68-45.9c-16.6-16.5-30.1-35.3-40.4-56
			C27.1,127.6,3.4,181.8,0,241.5H241.4z M241.4,241.5"/>
		<path d="M64.7,426.7c10.2-20.5,23.6-39.1,40-55.4c19.6-19.7,42.5-35.1,68-45.8c21.9-9.3,45-14.8,68.7-16.4v-38.5H0
			C3.4,330.4,27.2,384.7,64.7,426.7L64.7,426.7z M64.7,426.7"/>
	</g>
	<path d="M270.6,241.5H512c-3.3-59.7-27-113.9-64.3-155.7c-10.3,20.7-23.8,39.5-40.3,56c-19.7,19.7-42.6,35.1-68.1,45.9
		c-21.9,9.3-45,14.8-68.7,16.3v37.5H270.6z M270.6,241.5"/>
	<path d="M386.7,391.8c-31.5-31.5-72.2-50.1-116.2-53.5V512c59.2-3.3,113.1-26.7,154.9-63.5C416.3,427.7,403.3,408.5,386.7,391.8
		L386.7,391.8z M386.7,391.8"/>
	<path d="M125.3,121.2c31.5,31.5,72.2,50.2,116.1,53.5V0C182,3.4,128.1,26.9,86.3,63.9C95.5,85,108.5,104.5,125.3,121.2L125.3,121.2
		z M125.3,121.2"/>
	<path d="M241.4,338.3c-43.9,3.4-84.7,22.1-116.1,53.5c-16.5,16.6-29.6,35.7-38.8,56.6c41.8,36.8,95.7,60.2,154.9,63.5V338.3z
		 M241.4,338.3"/>
</g>
</svg>
