<?xml version="1.0" encoding="utf-8"?>
<!-- Generator: Adobe Illustrator 16.0.0, SVG Export Plug-In . SVG Version: 6.00 Build 0)  -->
<!DOCTYPE svg PUBLIC "-//W3C//DTD SVG 1.1//EN" "http://www.w3.org/Graphics/SVG/1.1/DTD/svg11.dtd">
<svg version="1.1" id="Layer_1" xmlns="http://www.w3.org/2000/svg" xmlns:xlink="http://www.w3.org/1999/xlink" x="0px" y="0px"
	 width="24px" height="24px" viewBox="0 0 24 24" enable-background="new 0 0 24 24" xml:space="preserve">
<g>
	<path fill-rule="evenodd" clip-rule="evenodd" d="M21.001,2.999h-2V4.5c0,0.05-0.008,0.099-0.021,0.144
		C18.917,4.848,18.726,5,18.501,5c-0.275,0-0.5-0.225-0.5-0.5v-2c0-0.275,0.225-0.5,0.5-0.5h3c0.275,0,0.5,0.225,0.5,0.5v4
		c0,0.275-0.225,0.5-0.5,0.5s-0.5-0.225-0.5-0.5V6.131V2.999z"/>
	<path fill-rule="evenodd" clip-rule="evenodd" d="M2.999,23H8v-5.5v-0.008C8.004,17.221,8.227,17,8.5,17
		c0.274,0,0.499,0.225,0.499,0.5v6c0,0.275-0.225,0.5-0.499,0.5H2.499C2.225,24,2,23.776,2,23.5V12.5C2,12.224,2.225,12,2.499,12
		c0.173,0,0.327,0.088,0.416,0.222c0.053,0.079,0.084,0.175,0.084,0.277V23z"/>
	<path fill-rule="evenodd" clip-rule="evenodd" d="M21.001,23h-5v-5.5L16,17.493C15.996,17.221,15.773,17,15.501,17
		c-0.275,0-0.5,0.225-0.5,0.5v6c0,0.275,0.225,0.5,0.5,0.5h6c0.275,0,0.5-0.225,0.5-0.5V12.5c0-0.275-0.225-0.499-0.5-0.499
		c-0.174,0-0.327,0.088-0.416,0.222c-0.053,0.079-0.084,0.175-0.084,0.277V23z"/>
	<path fill-rule="evenodd" clip-rule="evenodd" d="M8.5,17h7c0.275,0,0.5,0.225,0.5,0.5S15.775,18,15.5,18h-7
		C8.225,18,8,17.776,8,17.5S8.225,17,8.5,17z"/>
	<path fill-rule="evenodd" clip-rule="evenodd" d="M12,1.19L1.197,11.508c-0.199,0.189-0.517,0.183-0.706-0.017
		c-0.19-0.199-0.183-0.517,0.017-0.706L11.652,0.141c0.029-0.029,0.062-0.054,0.096-0.073C11.825,0.022,11.913,0,12,0
		s0.175,0.022,0.252,0.068c0.034,0.02,0.066,0.044,0.097,0.073l11.145,10.645c0.199,0.189,0.206,0.507,0.016,0.706
		c-0.189,0.199-0.507,0.206-0.706,0.017L12,1.19z"/>
	<path fill-rule="evenodd" clip-rule="evenodd" d="M12,4l-8.451,8.232l-0.716,0.641c-0.205,0.183-0.522,0.165-0.706-0.039
		c-0.184-0.206-0.166-0.522,0.039-0.706l9.501-9.172c0.19-0.17,0.476-0.17,0.666,0l9.501,9.172c0.205,0.184,0.223,0.5,0.04,0.706
		c-0.185,0.204-0.501,0.222-0.707,0.039l-0.428-0.384L12,4z"/>
	<path fill-rule="evenodd" clip-rule="evenodd" d="M12,8c2.21,0,4,1.791,4,4s-1.79,4-4,4c-2.209,0-4-1.791-4-4S9.791,8,12,8L12,8z
		 M12,9c-1.657,0-3,1.344-3,3s1.343,3,3,3s3-1.344,3-3S13.657,9,12,9z"/>
</g>
</svg>
