<?xml version="1.0" encoding="iso-8859-1"?>
<!-- Generator: Adobe Illustrator 19.0.0, SVG Export Plug-In . SVG Version: 6.00 Build 0)  -->
<svg version="1.1" id="Layer_1" xmlns="http://www.w3.org/2000/svg" xmlns:xlink="http://www.w3.org/1999/xlink" x="0px" y="0px"
	 viewBox="0 0 511.995 511.995" style="enable-background:new 0 0 511.995 511.995;" xml:space="preserve">
<circle style="fill:#00CC96;" cx="255.997" cy="255.997" r="255.997"/>
<path style="fill:#07B587;" d="M511.577,271.643c-6.764,113.308-87.307,206.745-194.272,233.169L121.341,308.849l16.489-110.56
	l71.663-77.582l57.288,57.288l12.684-12.684l52.003,52.003l19.026-26.213l26.002-10.147l11.204-17.757l35.303,35.092l6.764-8.244
	l82.021,82.021L511.577,271.643z"/>
<path style="fill:#E6E6E6;" d="M212.029,147.977c6.976,1.902,13.529,4.651,19.448,8.033l21.14-17.335l26.424,26.424l-17.335,21.14
	c3.593,6.131,6.131,12.684,8.033,19.448l27.27,2.748v37.417l-27.27,2.748c-1.902,6.976-4.651,13.529-8.033,19.448l17.335,21.14
	l-26.424,26.424l-21.14-17.335c-6.131,3.593-12.684,6.131-19.448,8.033l-2.748,27.27h-37.417l-2.748-27.27
	c-6.976-1.902-13.529-4.651-19.448-8.033l-21.14,17.335l-26.424-26.424l17.335-21.14c-3.594-6.131-6.131-12.684-8.033-19.448
	l-27.27-2.748v-37.417l27.27-2.748c1.902-6.976,4.651-13.529,8.033-19.448l-17.335-21.14l26.424-26.424l21.14,17.335
	c6.131-3.594,12.684-6.131,19.448-8.033l2.748-27.27h37.417L212.029,147.977z M190.678,184.125
	c23.888,0,43.336,19.448,43.336,43.336s-19.448,43.336-43.336,43.336s-43.336-19.448-43.336-43.336S166.791,184.125,190.678,184.125
	z"/>
<path style="fill:#CCCCCC;" d="M212.029,147.977c6.976,1.902,13.529,4.651,19.448,8.033l21.14-17.335l26.424,26.424l-17.335,21.14
	c3.593,6.131,6.131,12.684,8.033,19.448l27.27,2.748v37.417l-27.27,2.748c-1.902,6.976-4.651,13.529-8.033,19.448l17.335,21.14
	l-26.424,26.424l-21.14-17.335c-6.131,3.593-12.684,6.131-19.448,8.033l-2.748,27.27h-18.602v-63.419l0,0
	c23.888,0,43.336-19.448,43.336-43.336s-19.448-43.336-43.336-43.336l0,0v-63.419h18.602l2.748,27.27L212.029,147.977
	L212.029,147.977z"/>
<path style="fill:#E84F4F;" d="M337.81,303.775c3.805,1.057,7.399,2.748,10.782,4.44l9.935-8.033l20.717,20.717l-8.456,9.724
	c1.902,3.382,3.382,6.976,4.44,10.782l12.684,1.269v29.384l-12.895,0.846c-1.057,3.805-2.748,7.399-4.44,10.782l8.033,9.935
	l-20.717,20.717l-9.724-8.456c-3.382,1.902-6.976,3.382-10.782,4.44l-1.269,12.684h-29.384l-0.846-12.895
	c-3.805-1.057-7.399-2.748-10.782-4.44l-9.935,8.033l-20.717-20.717l8.456-9.724c-1.902-3.382-3.382-6.976-4.44-10.782
	l-12.684-1.269v-29.384l12.895-0.846c1.057-3.805,2.748-7.399,4.44-10.782l-8.033-9.935l20.717-20.717l9.724,8.456
	c3.382-1.902,6.976-3.382,10.782-4.44l1.269-12.684h29.384L337.81,303.775z M321.744,335.908c11.627,0,21.14,9.513,21.14,21.14
	c0,11.627-9.513,21.14-21.14,21.14c-11.627,0-21.14-9.513-21.14-21.14C300.604,345.42,310.117,335.908,321.744,335.908z"/>
<path style="fill:#C94545;" d="M337.81,303.775c3.805,1.057,7.399,2.748,10.782,4.44l9.935-8.033l20.717,20.717l-8.456,9.724
	c1.902,3.382,3.382,6.976,4.44,10.782l12.684,1.269v29.384l-12.895,0.846c-1.057,3.805-2.748,7.399-4.44,10.782l8.033,9.935
	l-20.717,20.717l-9.724-8.456c-3.382,1.902-6.976,3.382-10.782,4.44l-1.269,12.684h-13.953v-45.028
	c11.415-0.211,20.717-9.513,20.717-21.14c0-11.627-9.302-20.928-20.717-21.14v-45.028h14.586l0.846,12.895L337.81,303.775z"/>
<path style="fill:#FBBE00;" d="M389.179,179.263c4.228,1.057,8.033,2.748,11.627,4.862l12.684-10.358l15.855,15.855l-10.358,12.684
	c2.114,3.594,3.805,7.611,4.862,11.627l16.489,1.691v22.408l-16.489,1.691c-1.057,4.228-2.748,8.033-4.862,11.627l10.358,12.684
	l-15.855,15.855l-12.684-10.358c-3.593,2.114-7.611,3.805-11.627,4.862l-1.691,16.489h-22.408l-1.691-16.489
	c-4.228-1.057-8.033-2.748-11.627-4.862l-12.684,10.358l-15.855-15.855l10.358-12.684c-2.114-3.594-3.805-7.611-4.862-11.627
	l-16.489-1.691v-22.408l16.489-1.691c1.057-4.228,2.748-8.033,4.862-11.627l-10.358-12.684l15.855-15.855l12.684,10.358
	c3.594-2.114,7.611-3.805,11.627-4.862l1.691-16.489h22.408L389.179,179.263z M376.284,188.142
	c21.351,0,38.686,17.335,38.686,38.686s-17.335,38.686-38.686,38.686c-21.351,0-38.686-17.335-38.686-38.686
	S354.933,188.142,376.284,188.142z M376.284,193.004c18.602,0,33.823,15.22,33.823,33.823s-15.22,33.823-33.823,33.823
	s-33.823-15.22-33.823-33.823S357.681,193.004,376.284,193.004z M376.284,200.826c14.375,0,26.002,11.627,26.002,26.002
	c0,14.375-11.627,26.002-26.002,26.002c-14.375,0-26.002-11.627-26.002-26.002C350.283,212.453,361.909,200.826,376.284,200.826z"/>
<path style="fill:#E7A20B;" d="M389.179,179.263c4.228,1.057,8.033,2.748,11.627,4.862l12.684-10.358l15.855,15.855l-10.358,12.684
	c2.114,3.594,3.805,7.611,4.862,11.627l16.489,1.691v22.408l-16.489,1.691c-1.057,4.228-2.748,8.033-4.862,11.627l10.358,12.684
	l-15.855,15.855l-12.684-10.358c-3.593,2.114-7.611,3.805-11.627,4.862l-1.691,16.489h-11.204v-25.368
	c21.351,0,38.686-17.335,38.686-38.686s-17.335-38.686-38.686-38.686v-25.368h11.204L389.179,179.263z M376.284,260.862v-7.822l0,0
	c14.375,0,26.002-11.627,26.002-26.002c0-14.375-11.627-26.002-26.002-26.002l0,0v-7.822c18.602,0,33.823,15.22,33.823,33.823
	S394.887,260.862,376.284,260.862z"/>
<g>
</g>
<g>
</g>
<g>
</g>
<g>
</g>
<g>
</g>
<g>
</g>
<g>
</g>
<g>
</g>
<g>
</g>
<g>
</g>
<g>
</g>
<g>
</g>
<g>
</g>
<g>
</g>
<g>
</g>
</svg>
