<?xml version="1.0" encoding="utf-8"?>
<!-- Generator: Adobe Illustrator 16.0.0, SVG Export Plug-In . SVG Version: 6.00 Build 0)  -->
<!DOCTYPE svg PUBLIC "-//W3C//DTD SVG 1.1//EN" "http://www.w3.org/Graphics/SVG/1.1/DTD/svg11.dtd">
<svg version="1.1" id="Layer_1" xmlns="http://www.w3.org/2000/svg" xmlns:xlink="http://www.w3.org/1999/xlink" x="0px" y="0px"
	 width="24px" height="24px" viewBox="0 0 24 24" enable-background="new 0 0 24 24" xml:space="preserve">
<g>
	<path d="M18.25,14.75c0.691,0,1.252-0.56,1.252-1.25s-0.561-1.25-1.252-1.25c-0.689,0-1.25,0.56-1.25,1.25
		S17.561,14.75,18.25,14.75z M18.25,13c0.277,0,0.5,0.224,0.5,0.5c0,0.276-0.223,0.5-0.5,0.5c-0.275,0-0.5-0.224-0.5-0.5
		C17.75,13.224,17.975,13,18.25,13z"/>
	<path d="M23,5.5h-1V4c0-0.868-0.643-1.5-1.5-1.5c-6,0-13,0-19.002,0C0.631,2.5,0,3.143,0,4v2.5V7v13.501c0,0.551,0.449,1,0.998,1
		H23c0.551,0,1-0.45,1-1V6.5C24,5.949,23.551,5.5,23,5.5z M0.998,4c0.008-0.312,0.178-0.5,0.5-0.5c6.002,0,13.002,0,19.002,0
		c0.311,0,0.5,0.192,0.5,0.5v1.5H0.998V4z M23,11.948c0,0.093,0,0.917,0,3.104c0,0.293,0,0.605,0,0.948h-7c0-0.389,0-0.735,0-1.058
		c0,0.091,0-0.589,0-2.885c0-0.322,0-0.669,0-1.058h7C23,11.343,23,11.655,23,11.948z M23,10c-2.146,0-3.053,0-3.402,0
		c-0.131,0-0.188,0-0.195,0c-0.35,0-1.256,0-3.402,0c-0.551,0-1,0.449-1,1v5c0,0.551,0.453,1,1,1h7v3.501H0.998
		c0-11.226,0-2.775,0-14.001H23V10z"/>
</g>
</svg>
